<?xml version="1.0" standalone="no"?>
<!DOCTYPE svg PUBLIC "-//W3C//DTD SVG 20010904//EN"
 "http://www.w3.org/TR/2001/REC-SVG-20010904/DTD/svg10.dtd">
<svg version="1.0" xmlns="http://www.w3.org/2000/svg"
 width="1280.000000pt" height="640.000000pt" viewBox="0 0 1280.000000 640.000000"
 preserveAspectRatio="xMidYMid meet">
<metadata>
Created by potrace 1.15, written by Peter Selinger 2001-2017
</metadata>
<g transform="translate(0.000000,640.000000) scale(0.100000,-0.100000)"
fill="#000000" stroke="none">
<path d="M9577 4463 c-4 -3 -7 -66 -7 -140 0 -126 -1 -133 -20 -133 -18 0 -20
7 -20 64 0 42 4 66 13 69 9 4 9 8 -2 15 -22 16 -22 44 0 49 36 10 19 23 -31
23 -27 0 -50 -4 -50 -10 0 -5 11 -10 25 -10 20 0 25 -5 25 -25 0 -18 -5 -25
-20 -25 -11 0 -20 -4 -20 -10 0 -5 9 -10 20 -10 18 0 20 -7 20 -64 0 -42 -4
-66 -12 -69 -10 -4 -10 -7 0 -14 10 -7 7 -33 -13 -124 -14 -63 -28 -122 -31
-131 -4 -13 0 -18 15 -18 16 0 22 11 31 58 31 153 31 153 48 150 10 -2 34 -39
58 -89 68 -141 73 -129 -54 -129 -79 0 -112 4 -116 13 -3 8 -8 7 -16 -5 -7
-12 -24 -18 -50 -18 l-40 0 0 69 c0 60 2 69 20 74 14 4 20 14 20 34 0 34 -16
53 -43 53 -38 0 -65 -71 -32 -84 11 -4 15 -22 15 -76 0 -68 -1 -70 -25 -70
-14 0 -25 -2 -25 -5 0 -16 30 -75 39 -75 5 0 19 -13 31 -29 20 -29 21 -43 23
-315 1 -171 -2 -285 -7 -283 -5 2 -43 -16 -85 -40 -52 -30 -87 -43 -113 -43
-31 0 -38 -4 -38 -19 0 -19 -43 -61 -61 -61 -5 0 -9 41 -9 90 l0 90 -30 0
c-29 0 -30 2 -30 42 l0 41 -390 -6 -390 -7 0 215 0 215 -380 0 -380 0 0 -126
c0 -111 -2 -125 -16 -120 -9 3 -40 6 -70 6 l-54 0 0 45 0 45 -102 0 c-57 0
-228 -3 -380 -7 l-278 -6 0 -47 c0 -45 -1 -47 -25 -42 -19 3 -29 16 -43 54
-11 32 -24 50 -37 53 -11 2 -186 1 -390 -3 l-370 -7 -6 -375 c-8 -494 -5 -450
-28 -450 -23 0 -24 7 -46 494 -14 299 -18 333 -36 363 l-21 33 -369 0 -369 0
0 -25 c0 -16 -6 -25 -15 -25 -13 0 -15 -52 -15 -409 0 -280 -3 -412 -11 -416
-6 -4 -12 -5 -14 -4 -2 2 -7 159 -11 349 -6 297 -9 352 -25 399 -11 30 -19 62
-19 73 0 17 -17 18 -380 18 l-380 0 -1 -317 c-1 -175 -4 -347 -8 -383 l-6 -65
-7 75 c-4 41 -10 127 -13 190 -9 166 -6 158 -68 162 l-52 3 -3 168 -2 167
-381 0 -380 0 2 -167 c0 -93 -2 -167 -5 -165 -3 1 -22 2 -41 2 l-35 0 0 90 0
90 -380 0 -380 0 0 -90 0 -90 -65 0 -65 0 0 80 0 80 -185 0 -185 0 0 -80 c0
-47 -4 -80 -10 -80 -6 0 -10 33 -10 80 l0 80 -187 -2 -188 -3 -2 -194 c-1
-106 -4 -195 -6 -197 -2 -2 -68 117 -147 264 -78 147 -147 270 -153 274 -6 4
-8 51 -3 132 5 86 4 126 -4 126 -5 0 -10 14 -10 32 0 43 -10 29 -25 -34 -13
-56 -16 -54 -30 35 -10 65 -26 42 -23 -35 3 -67 5 -73 25 -76 22 -3 23 -7 23
-102 0 -79 -3 -98 -13 -94 -9 3 -115 -119 -293 -337 l-279 -341 -167 6 c-93 3
-168 4 -168 1 0 -15 38 -76 117 -188 48 -67 144 -207 215 -311 l128 -189 0
-79 0 -78 -27 0 c-16 0 -46 -5 -68 -12 l-40 -11 30 -9 c65 -18 2198 -30 6530
-35 4096 -5 4601 -4 5160 11 341 10 631 19 643 22 18 4 21 8 13 18 -15 18
-124 40 -158 31 -27 -6 -27 -6 -9 13 9 11 31 27 48 35 32 15 221 238 210 247
-4 3 -7 179 -7 392 l0 388 -260 0 c-143 0 -338 3 -432 7 l-173 6 0 279 0 278
-380 0 -380 0 0 -30 c0 -28 -3 -30 -35 -30 -32 0 -35 2 -35 30 0 30 0 30 -57
30 -32 0 -115 -3 -185 -7 -115 -5 -128 -8 -128 -25 0 -13 -7 -18 -25 -18 -18
0 -25 5 -25 20 0 19 -7 20 -190 20 -183 0 -190 -1 -190 -20 0 -17 -7 -20 -50
-20 -49 0 -50 -1 -50 -29 0 -29 -1 -29 -59 -33 l-58 -3 -6 125 c-4 69 -4 141
-1 161 4 22 2 39 -5 43 -6 4 -11 26 -11 49 -1 44 -21 131 -33 143 -4 4 -7 27
-7 51 0 47 -8 51 -45 27 -19 -12 -25 -25 -25 -50 0 -32 -2 -34 -36 -34 l-37 0
5 45 c5 42 3 47 -29 75 -18 17 -37 30 -41 30 -15 0 -52 -81 -52 -114 0 -29 -4
-36 -19 -36 -21 0 -25 -10 -37 -80 l-7 -45 -38 80 c-37 77 -51 155 -29 155 6
0 10 5 10 10 0 6 -9 10 -20 10 -13 0 -20 7 -20 20 0 13 7 20 20 20 11 0 20 5
20 10 0 6 -9 10 -20 10 -11 0 -20 7 -20 15 0 10 10 15 30 15 17 0 30 5 30 10
0 6 -13 10 -30 10 -20 0 -30 5 -30 15 0 11 11 15 40 15 22 0 40 5 40 10 0 6
-18 10 -40 10 -33 0 -40 3 -40 20 0 15 7 20 25 20 14 0 25 5 25 10 0 6 -11 10
-25 10 -18 0 -25 5 -25 20 0 16 7 20 30 20 17 0 30 5 30 10 0 11 -63 14 -73 3z
m173 -493 c0 -44 -4 -60 -13 -60 -11 0 -12 11 -6 48 4 26 8 53 8 60 1 6 3 12
6 12 3 0 5 -27 5 -60z m-7 -87 c-7 -2 -19 -2 -25 0 -7 3 -2 5 12 5 14 0 19 -2
13 -5z m-8854 -659 c-7 -14 -18 -20 -30 -17 -13 4 -19 0 -19 -11 0 -10 9 -16
24 -16 21 0 24 -5 28 -57 3 -31 10 -59 16 -61 8 -2 12 -42 12 -123 l0 -119
-132 1 c-73 1 -158 4 -189 8 l-56 6 176 328 176 328 3 -123 c2 -78 -1 -131 -9
-144z m191 11 c56 -126 110 -246 120 -265 25 -51 35 -84 21 -76 -6 4 -11 16
-11 27 0 10 -4 19 -10 19 -5 0 -10 -18 -10 -40 0 -36 3 -40 25 -40 20 0 25 -5
25 -25 l0 -25 -109 0 c-60 0 -123 3 -140 6 l-31 7 0 330 c0 190 4 327 9 322 5
-6 55 -113 111 -240z m-278 118 c-20 -38 -91 -169 -157 -293 l-120 -225 -83
-3 c-55 -2 -83 1 -80 8 4 12 468 580 474 580 2 0 -13 -30 -34 -67z m311 -115
c36 -68 83 -157 105 -198 35 -64 39 -78 28 -92 -11 -15 -21 1 -73 120 -34 75
-77 172 -97 215 -19 42 -34 77 -32 77 3 0 33 -55 69 -122z m217 -408 c0 -13
-7 -20 -20 -20 -10 0 -24 9 -30 20 -10 18 -8 20 20 20 23 0 30 -4 30 -20z"/>
</g>
</svg>
