<?xml version="1.0" standalone="no"?>
<!DOCTYPE svg PUBLIC "-//W3C//DTD SVG 20010904//EN"
 "http://www.w3.org/TR/2001/REC-SVG-20010904/DTD/svg10.dtd">
<svg version="1.0" xmlns="http://www.w3.org/2000/svg"
 width="24.000000pt" height="24.000000pt" viewBox="0 0 24.000000 24.000000"
 preserveAspectRatio="xMidYMid meet">

<g transform="translate(0.000000,24.000000) scale(0.100000,-0.100000)"
fill="#000000" stroke="none">
<path d="M60 215 c0 -8 -7 -15 -15 -15 -10 0 -15 -11 -15 -35 0 -19 -4 -35
-10 -35 -5 0 -10 -20 -10 -45 l0 -45 81 0 c76 0 82 2 110 29 19 20 29 40 29
60 0 30 -1 31 -45 31 -31 0 -47 -5 -51 -15 -12 -30 -27 -15 -21 20 5 30 3 35
-14 35 -10 0 -19 7 -19 15 0 8 -4 15 -10 15 -5 0 -10 -7 -10 -15z m30 -60 c0
-18 -5 -25 -20 -25 -15 0 -20 7 -20 25 0 18 5 25 20 25 15 0 20 -7 20 -25z
m100 -35 c0 -5 -4 -10 -10 -10 -5 0 -10 5 -10 10 0 6 5 10 10 10 6 0 10 -4 10
-10z"/>
</g>
</svg>
